<svg width="261" height="246" viewBox="0 0 261 246" fill="none" xmlns="http://www.w3.org/2000/svg">
<circle cx="131" cy="116" r="114.5" fill="url(#paint0_linear_7_839)" stroke="#15003E" stroke-width="3"/>
<circle cx="131" cy="116" r="105.5" fill="url(#paint1_linear_7_839)" stroke="#15003E" stroke-width="3"/>
<path d="M60.4092 21.5L60.8428 22.25L134.021 148.999L207.201 22.25L207.634 21.5H258.095L256.795 23.75L131.799 240.25L130.494 242.511L129.198 240.244C108.949 204.828 78.4239 151.504 52.6621 106.635C39.7811 84.1997 28.0909 63.8789 19.4717 48.9678C15.162 41.5121 11.621 35.4108 9.08301 31.0742C7.81376 28.9055 6.79728 27.1807 6.06152 25.9502C5.69337 25.3345 5.39806 24.8466 5.17773 24.4902C5.06749 24.3119 4.97837 24.171 4.91016 24.0654C4.87608 24.0127 4.84868 23.9718 4.82812 23.9414C4.81049 23.9154 4.80166 23.903 4.7998 23.9004L3 21.5H60.4092Z" fill="url(#paint2_linear_7_839)" stroke="#15003E" stroke-width="3"/>
<defs>
<linearGradient id="paint0_linear_7_839" x1="44" y1="3" x2="215.5" y2="248.5" gradientUnits="userSpaceOnUse">
<stop stop-color="#00FFC3"/>
<stop offset="1" stop-color="#D392FF"/>
</linearGradient>
<linearGradient id="paint1_linear_7_839" x1="131" y1="12" x2="131" y2="220" gradientUnits="userSpaceOnUse">
<stop stop-color="#035642"/>
<stop offset="1" stop-color="#00204B"/>
</linearGradient>
<linearGradient id="paint2_linear_7_839" x1="130.748" y1="23" x2="130.748" y2="239.5" gradientUnits="userSpaceOnUse">
<stop stop-color="#00FFC3"/>
<stop offset="1" stop-color="#D392FF"/>
</linearGradient>
</defs>
</svg>
